<svg width="22" height="20" viewBox="0 0 22 20" fill="none" xmlns="http://www.w3.org/2000/svg">
<path d="M21.0077 19.7901H0V6.61572H21.0077V19.7901ZM1.06819 18.7219H19.9395V7.68391H1.06819V18.7219Z" fill="#02006C"/>
<path d="M21.0077 7.68394H0V1.63086H21.0077V7.68394ZM1.06819 6.61575H19.9395V2.69905H1.06819V6.61575Z" fill="#02006C"/>
<path d="M5.47626 0.712127C5.47626 0.31883 5.15743 0 4.76413 0C4.37083 0 4.052 0.31883 4.052 0.712127V3.60336C4.052 3.99666 4.37083 4.31549 4.76413 4.31549C5.15743 4.31549 5.47626 3.99666 5.47626 3.60336V0.712127Z" fill="#02006C"/>
<path d="M16.9557 0.712127C16.9557 0.31883 16.6369 0 16.2436 0C15.8503 0 15.5315 0.31883 15.5315 0.712127V3.60336C15.5315 3.99666 15.8503 4.31549 16.2436 4.31549C16.6369 4.31549 16.9557 3.99666 16.9557 3.60336V0.712127Z" fill="#02006C"/>
<path d="M11.216 0.712127C11.216 0.31883 10.8972 0 10.5039 0C10.1106 0 9.79174 0.31883 9.79174 0.712127V3.60336C9.79174 3.99666 10.1106 4.31549 10.5039 4.31549C10.8972 4.31549 11.216 3.99666 11.216 3.60336V0.712127Z" fill="#02006C"/>
<path d="M10.5039 13.9579C10.8972 13.9579 11.216 13.6391 11.216 13.2458C11.216 12.8525 10.8972 12.5337 10.5039 12.5337C10.1106 12.5337 9.79174 12.8525 9.79174 13.2458C9.79174 13.6391 10.1106 13.9579 10.5039 13.9579Z" fill="#02006C"/>
<path d="M6.94323 13.9579C7.33653 13.9579 7.65536 13.6391 7.65536 13.2458C7.65536 12.8525 7.33653 12.5337 6.94323 12.5337C6.54994 12.5337 6.23111 12.8525 6.23111 13.2458C6.23111 13.6391 6.54994 13.9579 6.94323 13.9579Z" fill="#02006C"/>
<path d="M14.0645 13.9579C14.4578 13.9579 14.7766 13.6391 14.7766 13.2458C14.7766 12.8525 14.4578 12.5337 14.0645 12.5337C13.6712 12.5337 13.3524 12.8525 13.3524 13.2458C13.3524 13.6391 13.6712 13.9579 14.0645 13.9579Z" fill="#02006C"/>
</svg>
